<?xml version="1.0" encoding="utf-8"?>
<!-- Generator: Adobe Illustrator 25.1.0, SVG Export Plug-In . SVG Version: 6.00 Build 0)  -->
<svg version="1.1" id="Layer_1" xmlns="http://www.w3.org/2000/svg" xmlns:xlink="http://www.w3.org/1999/xlink" x="0px" y="0px"
	 viewBox="0 0 28.4 28.4" style="enable-background:new 0 0 28.4 28.4;" xml:space="preserve">
<style type="text/css">
	.st0{fill:#FFA500;}
</style>
<g>
	<path class="st0" d="M14.2,0.4C6.6,0.4,0.4,6.6,0.4,14.2S6.6,28,14.2,28S28,21.8,28,14.2S21.8,0.4,14.2,0.4z M22.6,22.6
		c-1.1,1.1-2.4,1.9-3.8,2.5c-1.5,0.6-3,0.9-4.6,0.9s-3.1-0.3-4.6-0.9c-1.4-0.6-2.7-1.5-3.8-2.5s-1.9-2.4-2.5-3.8
		c-0.6-1.5-0.9-3-0.9-4.6s0.3-3.1,0.9-4.6c0.6-1.4,1.5-2.7,2.5-3.8c1.1-1.1,2.4-1.9,3.8-2.5c1.5-0.6,3-0.9,4.6-0.9s3.1,0.3,4.6,0.9
		c1.4,0.6,2.7,1.5,3.8,2.5c1.1,1.1,1.9,2.4,2.5,3.8c0.6,1.5,0.9,3,0.9,4.6s-0.3,3.1-0.9,4.6C24.5,20.2,23.7,21.5,22.6,22.6z"/>
	<path class="st0" d="M14.2,19.1c0-1.1-0.9-2.2-1.6-2.9c-0.4-0.4-1-0.7-1.6-0.7h-0.2v-6h0.3c0.4,0,0.8-0.1,1.3-0.2c1-0.4,3-1,4.7-1
		H19c0.4,0,0.7,0.3,0.7,0.7c0,0.4-0.3,0.7-0.7,0.7c-0.1,0-0.2,0.1-0.2,0.2c0,0.1,0.1,0.2,0.3,0.2h0.7c0.4,0,0.7,0.3,0.7,0.7
		c0,0.4-0.3,0.7-0.7,0.7c-0.1,0-0.2,0.1-0.2,0.2c0,0.1,0.1,0.2,0.3,0.2l0.5,0l0,0c0.4,0,0.7,0.3,0.7,0.7c0,0.4-0.3,0.7-0.7,0.7
		c-0.1,0-0.2,0.1-0.3,0.2c0,0.1,0.1,0.3,0.2,0.3l0,0c0.4,0,0.7,0.3,0.7,0.7c0,0.4-0.3,0.7-0.7,0.7h-3.1c0,0-0.1,0-0.1,0
		c-0.6,0.1-1,0.6-1,1.2c0.1,0.6,0.1,1.7,0.1,2.6c0,0.5,0,1.1-0.1,1.6c0,0.2-0.2,0.4-0.3,0.5c-0.2,0.2-0.4,0.2-0.7,0.2
		c-0.4,0-0.8-0.4-0.8-0.8V19.1z M7.5,9.2C7.5,9.1,7.6,9,7.7,9h2.4c0.1,0,0.2,0.1,0.2,0.2v6.5c0,0.1-0.1,0.2-0.2,0.2H7.7
		c-0.1,0-0.2-0.1-0.2-0.2V9.2z"/>
</g>
</svg>
