<?xml version="1.0" encoding="utf-8"?>
<!-- Generator: Adobe Illustrator 25.1.0, SVG Export Plug-In . SVG Version: 6.00 Build 0)  -->
<svg version="1.1" id="Layer_1" xmlns="http://www.w3.org/2000/svg" xmlns:xlink="http://www.w3.org/1999/xlink" x="0px" y="0px"
	 viewBox="0 0 28.4 28.4" style="enable-background:new 0 0 28.4 28.4;" xml:space="preserve">
<style type="text/css">
	.st0{fill:#2FD35E;}
</style>
<g>
	<path class="st0" d="M14.2,2.4c1.6,0,3.1,0.3,4.6,0.9c1.4,0.6,2.7,1.5,3.8,2.5s1.9,2.4,2.5,3.8c0.6,1.5,0.9,3,0.9,4.6
		s-0.3,3.1-0.9,4.6c-0.6,1.4-1.5,2.7-2.5,3.8s-2.4,1.9-3.8,2.5c-1.5,0.6-3,0.9-4.6,0.9s-3.1-0.3-4.6-0.9c-1.4-0.6-2.7-1.5-3.8-2.5
		s-1.9-2.4-2.5-3.8c-0.6-1.5-0.9-3-0.9-4.6s0.3-3.1,0.9-4.6c0.6-1.4,1.5-2.7,2.5-3.8s2.4-1.9,3.8-2.5C11.1,2.7,12.6,2.4,14.2,2.4
		 M14.2,0.4C6.6,0.4,0.4,6.6,0.4,14.2S6.6,28,14.2,28S28,21.8,28,14.2S21.8,0.4,14.2,0.4L14.2,0.4z"/>
	<path class="st0" d="M14.2,7.5c0-0.4,0.4-0.8,0.8-0.8c0.2,0,0.5,0.1,0.7,0.2C15.8,7,15.9,7.2,16,7.4c0.1,0.5,0.2,1.1,0.1,1.6
		c0,1-0.1,2.1-0.1,2.6c-0.1,0.6,0.4,1.1,1,1.2c0,0,0.1,0,0.1,0h3.1c0.4,0,0.7,0.3,0.7,0.7c0,0.4-0.3,0.7-0.7,0.7l0,0
		c-0.1,0-0.2,0.1-0.2,0.3c0,0.1,0.1,0.2,0.3,0.2c0.4,0,0.7,0.3,0.7,0.7c0,0.4-0.3,0.7-0.7,0.7l0,0h-0.5c-0.1,0-0.2,0.1-0.3,0.2
		c0,0.1,0.1,0.2,0.2,0.2c0.4,0,0.7,0.3,0.7,0.7c0,0.4-0.3,0.7-0.7,0.7H19c-0.1,0-0.2,0.1-0.3,0.2c0,0.1,0.1,0.2,0.2,0.2
		c0.4,0,0.7,0.3,0.7,0.7c0,0.4-0.3,0.7-0.7,0.7h-1.9c-1.7,0-3.7-0.6-4.7-1c-0.4-0.1-0.8-0.2-1.3-0.2h-0.3v-6H11
		c0.6,0,1.2-0.2,1.6-0.7c0.7-0.7,1.6-1.8,1.6-2.9V7.5z M7.5,12.7c0-0.1,0.1-0.2,0.2-0.2h2.4c0.1,0,0.2,0.1,0.2,0.2v6.5
		c0,0.1-0.1,0.2-0.2,0.2H7.7c-0.1,0-0.2-0.1-0.2-0.2V12.7z"/>
</g>
</svg>
