<?xml version="1.0" encoding="utf-8"?>
<!-- Generator: Adobe Illustrator 25.1.0, SVG Export Plug-In . SVG Version: 6.00 Build 0)  -->
<svg version="1.1" id="Layer_1" xmlns="http://www.w3.org/2000/svg" xmlns:xlink="http://www.w3.org/1999/xlink" x="0px" y="0px"
	 viewBox="0 0 28.4 28.4" style="enable-background:new 0 0 28.4 28.4;" xml:space="preserve">
<style type="text/css">
	.st0{fill:#FFA500;}
</style>
<g transform="translate(11433 755)">
	<path class="st0" d="M-11418.8-755c-7.8,0-14.2,6.4-14.2,14.2c0,7.9,6.4,14.2,14.2,14.2s14.2-6.4,14.2-14.2
		S-11410.9-755-11418.8-755z M-11418.8-728.1c-7,0-12.7-5.7-12.7-12.7s5.7-12.7,12.7-12.7s12.7,5.7,12.7,12.7l0,0
		C-11406.1-733.8-11411.7-728.1-11418.8-728.1C-11418.7-728.1-11418.8-728.1-11418.8-728.1z"/>
	<g>
		<path class="st0" d="M-11425.6-745.5L-11425.6-745.5c0-1.2,1-2.2,2.2-2.2c1.2,0,2.2,1,2.2,2.2c0,1.2-1,2.2-2.2,2.2
			C-11424.6-743.3-11425.6-744.3-11425.6-745.5L-11425.6-745.5z"/>
		<path class="st0" d="M-11416.2-745.5L-11416.2-745.5c0-1.2,1-2.2,2.2-2.2s2.2,1,2.2,2.2c0,1.2-1,2.2-2.2,2.2
			S-11416.2-744.3-11416.2-745.5L-11416.2-745.5z"/>
		<path class="st0" d="M-11411.3-733.9L-11411.3-733.9c-1.6-2.4-4.4-3.9-7.5-3.9s-5.9,1.6-7.5,4c0.9-3.3,3.9-5.7,7.5-5.7
			C-11415.3-739.6-11412.2-737.2-11411.3-733.9L-11411.3-733.9z"/>
		<path class="st0" d="M-11411.3-742.4L-11411.3-742.4c0.7,0,1.2,2,1.2,2.6c0,0.7-0.4,1.2-1.1,1.2s-1.2-0.5-1.2-1.2
			C-11412.5-740.4-11411.9-742.4-11411.3-742.4L-11411.3-742.4z"/>
	</g>
</g>
</svg>
