<?xml version="1.0" encoding="utf-8"?>
<!-- Generator: Adobe Illustrator 25.1.0, SVG Export Plug-In . SVG Version: 6.00 Build 0)  -->
<svg version="1.1" id="Layer_1" xmlns="http://www.w3.org/2000/svg" xmlns:xlink="http://www.w3.org/1999/xlink" x="0px" y="0px"
	 viewBox="0 0 28.4 28.4" style="enable-background:new 0 0 28.4 28.4;" xml:space="preserve">
<style type="text/css">
	.st0{fill:#FFA500;}
</style>
<g transform="translate(11433 755)">
	<path class="st0" d="M-11418.8-755c-7.8,0-14.2,6.4-14.2,14.2c0,7.9,6.4,14.2,14.2,14.2s14.2-6.4,14.2-14.2
		S-11410.9-755-11418.8-755z M-11418.8-728.1c-7,0-12.7-5.7-12.7-12.7s5.7-12.7,12.7-12.7s12.7,5.7,12.7,12.7l0,0
		C-11406.1-733.8-11411.7-728.1-11418.8-728.1C-11418.7-728.1-11418.8-728.1-11418.8-728.1z"/>
	<g>
		<polygon class="st0" points="-11416.4,-744.2 -11416.4,-744.2 -11417.4,-745.1 -11414.7,-747.8 -11414.7,-747.8 -11412,-745.1 
			-11412.9,-744.2 -11414.7,-745.9 		"/>
		<polygon class="st0" points="-11424.5,-744.2 -11424.5,-744.2 -11425.5,-745.1 -11422.8,-747.8 -11422.8,-747.8 -11420.1,-745.1 
			-11421.1,-744.2 -11422.8,-745.9 		"/>
		<path class="st0" d="M-11411.2-739.5L-11411.2-739.5c-1,3.3-4,5.7-7.6,5.7c-3.5,0-6.6-2.4-7.6-5.7c1.7,2.4,4.4,4,7.6,4
			S-11412.8-737.1-11411.2-739.5L-11411.2-739.5z"/>
	</g>
</g>
</svg>
